<mxfile host="app.diagrams.net" modified="2023-12-20T17:46:10.513Z" agent="Mozilla/5.0 (Windows NT 10.0; Win64; x64) AppleWebKit/537.36 (KHTML, like Gecko) Chrome/120.0.0.0 Safari/537.36" etag="oEd9Wjo0yf3ap3d4HO0a" version="22.1.11" type="github">
  <diagram name="Page-1" id="8z0Wi4fJGzDnKkoXMtif">
    <mxGraphModel dx="2066" dy="2239" grid="1" gridSize="10" guides="1" tooltips="1" connect="1" arrows="1" fold="1" page="1" pageScale="1" pageWidth="850" pageHeight="1100" math="0" shadow="0">
      <root>
        <mxCell id="0" />
        <mxCell id="1" parent="0" />
        <mxCell id="58GR-YE5wtxeKfuJFejk-5" value="" style="ellipse;shape=cloud;whiteSpace=wrap;html=1;align=left;" vertex="1" parent="1">
          <mxGeometry x="20" y="130" width="400" height="460" as="geometry" />
        </mxCell>
        <mxCell id="58GR-YE5wtxeKfuJFejk-1" value="pfSense FIrewall&lt;br&gt;" style="rounded=0;whiteSpace=wrap;html=1;" vertex="1" parent="1">
          <mxGeometry x="365" y="120" width="120" height="60" as="geometry" />
        </mxCell>
        <mxCell id="58GR-YE5wtxeKfuJFejk-2" value="Kali" style="rounded=0;whiteSpace=wrap;html=1;" vertex="1" parent="1">
          <mxGeometry x="190" y="270" width="120" height="60" as="geometry" />
        </mxCell>
        <mxCell id="58GR-YE5wtxeKfuJFejk-3" value="Windows" style="rounded=0;whiteSpace=wrap;html=1;" vertex="1" parent="1">
          <mxGeometry x="190" y="360" width="120" height="60" as="geometry" />
        </mxCell>
        <mxCell id="58GR-YE5wtxeKfuJFejk-4" value="Debian Server" style="rounded=0;whiteSpace=wrap;html=1;" vertex="1" parent="1">
          <mxGeometry x="190" y="440" width="120" height="60" as="geometry" />
        </mxCell>
        <mxCell id="58GR-YE5wtxeKfuJFejk-6" value="Labnet" style="text;strokeColor=none;align=center;fillColor=none;html=1;verticalAlign=middle;whiteSpace=wrap;rounded=0;" vertex="1" parent="1">
          <mxGeometry x="80" y="300" width="60" height="30" as="geometry" />
        </mxCell>
        <mxCell id="58GR-YE5wtxeKfuJFejk-7" value="Infected Net" style="ellipse;shape=cloud;whiteSpace=wrap;html=1;" vertex="1" parent="1">
          <mxGeometry x="460" y="210" width="340" height="340" as="geometry" />
        </mxCell>
        <mxCell id="58GR-YE5wtxeKfuJFejk-8" value="infected boxes" style="rounded=0;whiteSpace=wrap;html=1;" vertex="1" parent="1">
          <mxGeometry x="560" y="400" width="120" height="60" as="geometry" />
        </mxCell>
        <mxCell id="58GR-YE5wtxeKfuJFejk-11" value="" style="rounded=0;whiteSpace=wrap;html=1;" vertex="1" parent="1">
          <mxGeometry x="570" y="410" width="120" height="60" as="geometry" />
        </mxCell>
        <mxCell id="58GR-YE5wtxeKfuJFejk-10" value="" style="rounded=0;whiteSpace=wrap;html=1;" vertex="1" parent="1">
          <mxGeometry x="580" y="420" width="120" height="60" as="geometry" />
        </mxCell>
        <mxCell id="58GR-YE5wtxeKfuJFejk-9" value="Infected Boxes" style="rounded=0;whiteSpace=wrap;html=1;" vertex="1" parent="1">
          <mxGeometry x="590" y="430" width="120" height="60" as="geometry" />
        </mxCell>
        <mxCell id="58GR-YE5wtxeKfuJFejk-12" value="" style="endArrow=none;html=1;rounded=0;entryX=0.25;entryY=1;entryDx=0;entryDy=0;exitX=1;exitY=0.5;exitDx=0;exitDy=0;" edge="1" parent="1" source="58GR-YE5wtxeKfuJFejk-2" target="58GR-YE5wtxeKfuJFejk-1">
          <mxGeometry width="50" height="50" relative="1" as="geometry">
            <mxPoint x="400" y="600" as="sourcePoint" />
            <mxPoint x="450" y="550" as="targetPoint" />
            <Array as="points">
              <mxPoint x="395" y="300" />
            </Array>
          </mxGeometry>
        </mxCell>
        <mxCell id="58GR-YE5wtxeKfuJFejk-13" value="" style="endArrow=none;html=1;rounded=0;entryX=0.25;entryY=1;entryDx=0;entryDy=0;exitX=1;exitY=0.5;exitDx=0;exitDy=0;" edge="1" parent="1" source="58GR-YE5wtxeKfuJFejk-3" target="58GR-YE5wtxeKfuJFejk-1">
          <mxGeometry width="50" height="50" relative="1" as="geometry">
            <mxPoint x="400" y="600" as="sourcePoint" />
            <mxPoint x="400" y="300" as="targetPoint" />
            <Array as="points">
              <mxPoint x="395" y="390" />
            </Array>
          </mxGeometry>
        </mxCell>
        <mxCell id="58GR-YE5wtxeKfuJFejk-14" value="" style="endArrow=none;html=1;rounded=0;exitX=1;exitY=0.5;exitDx=0;exitDy=0;entryX=0.25;entryY=1;entryDx=0;entryDy=0;" edge="1" parent="1" source="58GR-YE5wtxeKfuJFejk-4" target="58GR-YE5wtxeKfuJFejk-1">
          <mxGeometry width="50" height="50" relative="1" as="geometry">
            <mxPoint x="400" y="600" as="sourcePoint" />
            <mxPoint x="391" y="199" as="targetPoint" />
            <Array as="points">
              <mxPoint x="395" y="470" />
            </Array>
          </mxGeometry>
        </mxCell>
        <mxCell id="58GR-YE5wtxeKfuJFejk-15" value="" style="endArrow=none;html=1;rounded=0;entryX=0.85;entryY=0.983;entryDx=0;entryDy=0;entryPerimeter=0;exitX=0;exitY=0.5;exitDx=0;exitDy=0;" edge="1" parent="1" source="58GR-YE5wtxeKfuJFejk-9" target="58GR-YE5wtxeKfuJFejk-1">
          <mxGeometry width="50" height="50" relative="1" as="geometry">
            <mxPoint x="400" y="600" as="sourcePoint" />
            <mxPoint x="467" y="195" as="targetPoint" />
            <Array as="points">
              <mxPoint x="470" y="460" />
            </Array>
          </mxGeometry>
        </mxCell>
        <mxCell id="58GR-YE5wtxeKfuJFejk-17" value="Internet" style="ellipse;shape=cloud;whiteSpace=wrap;html=1;" vertex="1" parent="1">
          <mxGeometry x="170" y="-490" width="470" height="320" as="geometry" />
        </mxCell>
        <mxCell id="58GR-YE5wtxeKfuJFejk-18" value="Unifi Dream Router Gateway" style="ellipse;whiteSpace=wrap;html=1;aspect=fixed;" vertex="1" parent="1">
          <mxGeometry x="390" y="-110" width="90" height="90" as="geometry" />
        </mxCell>
        <mxCell id="58GR-YE5wtxeKfuJFejk-16" value="" style="shape=link;html=1;rounded=0;exitX=0.5;exitY=0;exitDx=0;exitDy=0;entryX=0.5;entryY=1;entryDx=0;entryDy=0;" edge="1" parent="1" source="58GR-YE5wtxeKfuJFejk-1" target="58GR-YE5wtxeKfuJFejk-23">
          <mxGeometry width="100" relative="1" as="geometry">
            <mxPoint x="370" y="230" as="sourcePoint" />
            <mxPoint x="420" y="-180" as="targetPoint" />
          </mxGeometry>
        </mxCell>
        <mxCell id="58GR-YE5wtxeKfuJFejk-22" value="VPN Tunnel" style="edgeLabel;html=1;align=center;verticalAlign=middle;resizable=0;points=[];" vertex="1" connectable="0" parent="58GR-YE5wtxeKfuJFejk-16">
          <mxGeometry x="-0.5051" y="2" relative="1" as="geometry">
            <mxPoint as="offset" />
          </mxGeometry>
        </mxCell>
        <mxCell id="58GR-YE5wtxeKfuJFejk-20" value="" style="endArrow=none;html=1;rounded=0;entryX=1;entryY=0.5;entryDx=0;entryDy=0;exitX=0.064;exitY=0.354;exitDx=0;exitDy=0;exitPerimeter=0;" edge="1" parent="1" source="58GR-YE5wtxeKfuJFejk-21" target="58GR-YE5wtxeKfuJFejk-18">
          <mxGeometry width="50" height="50" relative="1" as="geometry">
            <mxPoint x="400" y="80" as="sourcePoint" />
            <mxPoint x="450" y="30" as="targetPoint" />
          </mxGeometry>
        </mxCell>
        <mxCell id="58GR-YE5wtxeKfuJFejk-21" value="Home Net" style="ellipse;shape=cloud;whiteSpace=wrap;html=1;" vertex="1" parent="1">
          <mxGeometry x="590" y="-130" width="220" height="260" as="geometry" />
        </mxCell>
        <mxCell id="58GR-YE5wtxeKfuJFejk-23" value="Public VPN Service" style="rounded=0;whiteSpace=wrap;html=1;" vertex="1" parent="1">
          <mxGeometry x="360" y="-290" width="120" height="60" as="geometry" />
        </mxCell>
        <mxCell id="58GR-YE5wtxeKfuJFejk-24" value="" style="endArrow=none;html=1;rounded=0;entryX=0.5;entryY=0;entryDx=0;entryDy=0;exitX=0.55;exitY=0.95;exitDx=0;exitDy=0;exitPerimeter=0;" edge="1" parent="1" source="58GR-YE5wtxeKfuJFejk-17" target="58GR-YE5wtxeKfuJFejk-18">
          <mxGeometry width="50" height="50" relative="1" as="geometry">
            <mxPoint x="400" y="80" as="sourcePoint" />
            <mxPoint x="450" y="30" as="targetPoint" />
          </mxGeometry>
        </mxCell>
        <mxCell id="58GR-YE5wtxeKfuJFejk-39" value="" style="fontColor=#0066CC;verticalAlign=top;verticalLabelPosition=bottom;labelPosition=center;align=center;html=1;outlineConnect=0;fillColor=#CCCCCC;strokeColor=#6881B3;gradientColor=none;gradientDirection=north;strokeWidth=2;shape=mxgraph.networks.web_server;" vertex="1" parent="1">
          <mxGeometry x="250" y="-400" width="105" height="105" as="geometry" />
        </mxCell>
      </root>
    </mxGraphModel>
  </diagram>
</mxfile>
